<svg width="46" height="46" viewBox="0 0 46 46" fill="none" xmlns="http://www.w3.org/2000/svg">
<path d="M34.4994 13.5125C34.4994 13.0042 34.2975 12.5167 33.938 12.1572C33.5786 11.7978 33.0911 11.5958 32.5827 11.5958L17.2494 11.5C16.7411 11.5 16.2536 11.7019 15.8941 12.0614C15.5347 12.4208 15.3327 12.9083 15.3327 13.4167C15.3327 13.925 15.5347 14.4125 15.8941 14.772C16.2536 15.1314 16.7411 15.3333 17.2494 15.3333H27.9061L12.0552 31.2225C11.8756 31.4007 11.733 31.6127 11.6357 31.8462C11.5384 32.0798 11.4883 32.3303 11.4883 32.5833C11.4883 32.8364 11.5384 33.0869 11.6357 33.3204C11.733 33.554 11.8756 33.766 12.0552 33.9442C12.2334 34.1238 12.4454 34.2664 12.679 34.3637C12.9125 34.461 13.163 34.5111 13.4161 34.5111C13.6691 34.5111 13.9196 34.461 14.1532 34.3637C14.3867 34.2664 14.5987 34.1238 14.7769 33.9442L30.6661 18.055V28.75C30.6661 29.2583 30.868 29.7458 31.2274 30.1053C31.5869 30.4647 32.0744 30.6667 32.5827 30.6667C33.0911 30.6667 33.5786 30.4647 33.938 30.1053C34.2975 29.7458 34.4994 29.2583 34.4994 28.75V13.5125Z" fill="#00B2E3"/>
</svg>
