<svg width="14" height="14" viewBox="0 0 14 14" fill="none" xmlns="http://www.w3.org/2000/svg">
<path d="M13.5004 1.6375C13.5004 1.35018 13.3863 1.07463 13.1831 0.871468C12.98 0.668303 12.7044 0.554167 12.4171 0.554167L3.75042 0.5C3.4631 0.5 3.18755 0.614137 2.98439 0.817301C2.78123 1.02047 2.66709 1.29602 2.66709 1.58333C2.66709 1.87065 2.78123 2.1462 2.98439 2.34937C3.18755 2.55253 3.4631 2.66667 3.75042 2.66667H9.77376L0.814589 11.6475C0.71305 11.7482 0.632456 11.868 0.577457 12C0.522457 12.1321 0.494141 12.2737 0.494141 12.4167C0.494141 12.5597 0.522457 12.7013 0.577457 12.8333C0.632456 12.9653 0.71305 13.0851 0.814589 13.1858C0.915299 13.2874 1.03512 13.368 1.16713 13.423C1.29914 13.478 1.44074 13.5063 1.58376 13.5063C1.72677 13.5063 1.86837 13.478 2.00038 13.423C2.13239 13.368 2.25221 13.2874 2.35292 13.1858L11.3338 4.205V10.25C11.3338 10.5373 11.4479 10.8129 11.6511 11.016C11.8542 11.2192 12.1298 11.3333 12.4171 11.3333C12.7044 11.3333 12.98 11.2192 13.1831 11.016C13.3863 10.8129 13.5004 10.5373 13.5004 10.25V1.6375Z" fill="#00B2E3"/>
</svg>
