<svg width="20" height="20" viewBox="0 0 20 20" fill="none" xmlns="http://www.w3.org/2000/svg">
<path d="M15.8327 4.16663H4.16602C3.50297 4.16663 2.86709 4.43002 2.39825 4.89886C1.92941 5.3677 1.66602 6.00358 1.66602 6.66663V13.3333C1.66602 13.9963 1.92941 14.6322 2.39825 15.1011C2.86709 15.5699 3.50297 15.8333 4.16602 15.8333H15.8327C16.4957 15.8333 17.1316 15.5699 17.6004 15.1011C18.0693 14.6322 18.3327 13.9963 18.3327 13.3333V6.66663C18.3327 6.00358 18.0693 5.3677 17.6004 4.89886C17.1316 4.43002 16.4957 4.16663 15.8327 4.16663ZM3.33268 6.66663C3.33268 6.44561 3.42048 6.23365 3.57676 6.07737C3.73304 5.92109 3.945 5.83329 4.16602 5.83329H15.8327C16.0537 5.83329 16.2657 5.92109 16.4219 6.07737C16.5782 6.23365 16.666 6.44561 16.666 6.66663V7.49996H3.33268V6.66663ZM16.666 13.3333C16.666 13.5543 16.5782 13.7663 16.4219 13.9225C16.2657 14.0788 16.0537 14.1666 15.8327 14.1666H4.16602C3.945 14.1666 3.73304 14.0788 3.57676 13.9225C3.42048 13.7663 3.33268 13.5543 3.33268 13.3333V9.16663H16.666V13.3333Z" fill="#00B2E3"/>
<path d="M5.83333 12.5H9.16667C9.38768 12.5 9.59964 12.4122 9.75592 12.256C9.9122 12.0997 10 11.8877 10 11.6667C10 11.4457 9.9122 11.2337 9.75592 11.0775C9.59964 10.9212 9.38768 10.8334 9.16667 10.8334H5.83333C5.61232 10.8334 5.40036 10.9212 5.24408 11.0775C5.0878 11.2337 5 11.4457 5 11.6667C5 11.8877 5.0878 12.0997 5.24408 12.256C5.40036 12.4122 5.61232 12.5 5.83333 12.5Z" fill="#00B2E3"/>
<path d="M12.4993 12.5H14.166C14.387 12.5 14.599 12.4122 14.7553 12.256C14.9116 12.0997 14.9993 11.8877 14.9993 11.6667C14.9993 11.4457 14.9116 11.2337 14.7553 11.0775C14.599 10.9212 14.387 10.8334 14.166 10.8334H12.4993C12.2783 10.8334 12.0664 10.9212 11.9101 11.0775C11.7538 11.2337 11.666 11.4457 11.666 11.6667C11.666 11.8877 11.7538 12.0997 11.9101 12.256C12.0664 12.4122 12.2783 12.5 12.4993 12.5Z" fill="#00B2E3"/>
</svg>
