<svg width="20" height="24" viewBox="0 0 20 24" fill="none" xmlns="http://www.w3.org/2000/svg">
<g clip-path="url(#clip0_122_3796)">
<path d="M13.7802 0H1.53846C1.13044 0 0.739123 0.158035 0.450605 0.43934C0.162087 0.720644 0 1.10218 0 1.5L0 22.5C0 22.8978 0.162087 23.2794 0.450605 23.5607C0.739123 23.842 1.13044 24 1.53846 24H18.4615C18.8696 24 19.2609 23.842 19.5494 23.5607C19.8379 23.2794 20 22.8978 20 22.5V6.06434L13.7802 0ZM18.4615 22.5H1.53846V1.5H11.9231V4.875C11.924 5.67037 12.2485 6.43291 12.8253 6.99533C13.4021 7.55774 14.1842 7.8741 15 7.875H18.4615V22.5ZM15 6.375C14.592 6.375 14.2007 6.21696 13.9121 5.93566C13.6236 5.65436 13.4615 5.27282 13.4615 4.875V1.81066L18.1429 6.375H15Z" fill="#00B2E3"/>
<path d="M5.18696 20.9732C4.76283 20.9732 4.36771 20.7766 4.0298 20.3877C3.85199 20.1831 3.51247 19.63 4.19812 18.9157C4.63398 18.4617 5.42925 17.9933 6.56182 17.5236C6.97259 17.3532 7.42312 17.1858 7.89725 17.0264C8.18451 16.4368 8.46103 15.788 8.71492 15.0993C8.88427 14.6399 9.03504 14.1844 9.16516 13.7443C8.38853 12.5573 7.95146 11.4492 7.95879 10.6328C7.96612 9.81536 8.40461 9.25818 9.1935 9.06386L9.28771 9.42742L9.19348 9.06386C9.6978 8.93957 10.1231 9.15245 10.3311 9.63316C10.6811 10.4418 10.4332 12.0535 9.99939 13.6165C10.2192 13.933 10.4637 14.2548 10.7301 14.5763C11.1434 15.0771 11.5923 15.549 12.0735 15.9885C12.5539 15.9124 13.0069 15.8586 13.4225 15.8286C14.5849 15.7451 15.3554 15.8525 15.7778 16.1571C15.982 16.3043 16.4078 16.7303 15.9523 17.5039C15.5833 18.1306 14.9296 18.3565 14.1114 18.1401C13.5194 17.9835 12.844 17.6041 12.1041 17.0125C12.0147 16.941 11.9251 16.867 11.8352 16.7903C11.3116 16.8829 10.7588 17.0005 10.1988 17.1392C9.59059 17.29 9.00271 17.4573 8.45071 17.6346C8.28079 17.9692 8.1067 18.2859 7.93045 18.5802C7.30329 19.6277 6.68256 20.3402 6.08545 20.6979C5.77848 20.8819 5.47598 20.9731 5.18696 20.9732ZM7.37706 18.0093C6.13595 18.4799 5.18379 18.9865 4.75973 19.4283C4.46819 19.732 4.56117 19.839 4.6167 19.9029C4.93504 20.2693 5.25384 20.3159 5.68271 20.059C6.201 19.7484 6.79598 19.0158 7.37706 18.0093ZM12.8595 16.6369C13.3942 17.0324 13.8961 17.3061 14.3128 17.4163C14.9295 17.5794 15.1564 17.3493 15.2852 17.1305C15.4488 16.8527 15.3715 16.7969 15.3204 16.7601C15.2006 16.6738 14.7814 16.483 13.4791 16.5766C13.2831 16.5907 13.076 16.6109 12.8595 16.6369ZM9.723 14.533C9.63358 14.808 9.53884 15.0814 9.43881 15.3529C9.26545 15.8232 9.08035 16.2798 8.88682 16.7157C9.25874 16.6068 9.63301 16.5057 10.0094 16.4124C10.3969 16.3163 10.777 16.2307 11.146 16.1562C10.7988 15.8134 10.4572 15.4404 10.1317 15.0477C9.98936 14.8759 9.85311 14.7043 9.723 14.533V14.533ZM9.46917 9.77716C9.43962 9.77837 9.41033 9.78303 9.38192 9.79103C8.93393 9.90138 8.73225 10.163 8.728 10.6394C8.72317 11.1773 8.97886 11.9102 9.43675 12.7235C9.73929 11.4346 9.8216 10.3852 9.6224 9.92474C9.57345 9.81166 9.53165 9.77716 9.46917 9.77716Z" fill="#00B2E3"/>
</g>
<defs>
<clipPath id="clip0_122_3796">
<rect width="20" height="24" fill="white"/>
</clipPath>
</defs>
</svg>
