<svg width="25" height="30" viewBox="0 0 25 30" fill="none" xmlns="http://www.w3.org/2000/svg">
<path d="M17.2252 0H1.92308C1.41305 0 0.923903 0.197544 0.563256 0.549175C0.202609 0.900806 0 1.37772 0 1.875L0 28.125C0 28.6223 0.202609 29.0992 0.563256 29.4508C0.923903 29.8025 1.41305 30 1.92308 30H23.0769C23.587 30 24.0761 29.8025 24.4367 29.4508C24.7974 29.0992 25 28.6223 25 28.125V7.58042L17.2252 0ZM23.0769 28.125H1.92308V1.875H14.9038V6.09375C14.905 7.08797 15.3106 8.04114 16.0316 8.74416C16.7527 9.44718 17.7303 9.84263 18.75 9.84375H23.0769V28.125ZM18.75 7.96875C18.24 7.96875 17.7508 7.77121 17.3902 7.41958C17.0295 7.06794 16.8269 6.59103 16.8269 6.09375V2.26333L22.6786 7.96875H18.75Z" fill="white"/>
<path d="M6.48322 26.2165C5.95305 26.2165 5.45915 25.9708 5.03676 25.4847C4.8145 25.2289 4.3901 24.5375 5.24716 23.6447C5.79199 23.0772 6.78607 22.4917 8.20179 21.9046C8.71525 21.6916 9.27841 21.4823 9.87108 21.2831C10.2302 20.546 10.5758 19.735 10.8932 18.8741C11.1049 18.2999 11.2933 17.7306 11.456 17.1804C10.4852 15.6967 9.93884 14.3115 9.948 13.291C9.95716 12.2693 10.5053 11.5728 11.4914 11.3299L11.6091 11.7843L11.4914 11.3299C12.1218 11.1745 12.6534 11.4406 12.9134 12.0415C13.3509 13.0524 13.041 15.0669 12.4988 17.0207C12.7735 17.4163 13.0791 17.8186 13.4121 18.2205C13.9288 18.8465 14.4899 19.4363 15.0914 19.9857C15.6919 19.8906 16.2581 19.8233 16.7777 19.7859C18.2307 19.6814 19.1937 19.8157 19.7217 20.1964C19.977 20.3804 20.5092 20.9129 19.9399 21.8799C19.4787 22.6633 18.6615 22.9457 17.6387 22.6752C16.8987 22.4795 16.0546 22.0052 15.1296 21.2657C15.0179 21.1763 14.9058 21.0838 14.7936 20.988C14.139 21.1037 13.4481 21.2506 12.7481 21.4241C11.9878 21.6125 11.2529 21.8217 10.5629 22.0433C10.3505 22.4616 10.1329 22.8574 9.91257 23.2254C9.12862 24.5346 8.35272 25.4253 7.60632 25.8725C7.22261 26.1024 6.84448 26.2165 6.48322 26.2165ZM9.22084 22.5116C7.66945 23.1 6.47925 23.7332 5.94917 24.2854C5.58475 24.665 5.70097 24.7988 5.77038 24.8787C6.16831 25.3366 6.56681 25.395 7.1029 25.0738C7.75076 24.6856 8.49448 23.7698 9.22084 22.5116ZM16.0738 20.7961C16.7423 21.2906 17.3697 21.6327 17.8905 21.7704C18.6613 21.9743 18.945 21.6867 19.106 21.4132C19.3105 21.0659 19.2139 20.9962 19.15 20.9502C19.0003 20.8423 18.4762 20.6038 16.8484 20.7209C16.6034 20.7385 16.3445 20.7637 16.0738 20.7961ZM12.1533 18.1663C12.0415 18.5101 11.9231 18.8518 11.798 19.1912C11.5813 19.7791 11.35 20.3498 11.108 20.8947C11.5729 20.7586 12.0408 20.6321 12.5112 20.5155C12.9956 20.3955 13.4707 20.2885 13.932 20.1953C13.498 19.7669 13.071 19.3006 12.6642 18.8096C12.4862 18.5949 12.3159 18.3804 12.1533 18.1663V18.1663ZM11.836 12.2215C11.799 12.223 11.7624 12.2288 11.7269 12.2389C11.1669 12.3768 10.9148 12.7038 10.9095 13.2993C10.9035 13.9716 11.2231 14.8878 11.7954 15.9044C12.1736 14.2933 12.2765 12.9815 12.0275 12.406C11.9663 12.2646 11.9141 12.2215 11.836 12.2215Z" fill="white"/>
</svg>
