<svg width="16" height="16" viewBox="0 0 16 16" fill="none" xmlns="http://www.w3.org/2000/svg">
<path d="M12.05 15.5001C8.98797 15.4961 6.05249 14.278 3.8873 12.1128C1.72211 9.9476 0.503969 7.01212 0.5 3.95009C0.5 3.03509 0.863481 2.15757 1.51048 1.51057C2.15748 0.863567 3.035 0.500086 3.95 0.500086C4.14376 0.49861 4.33719 0.516194 4.5275 0.552586C4.71148 0.579811 4.89235 0.625028 5.0675 0.687586C5.19069 0.730808 5.30046 0.805436 5.38596 0.90409C5.47146 1.00274 5.52973 1.12201 5.555 1.25009L6.5825 5.75009C6.6102 5.87223 6.60686 5.99937 6.5728 6.1199C6.53874 6.24043 6.47503 6.3505 6.3875 6.44009C6.29 6.54509 6.2825 6.55259 5.36 7.03259C6.09875 8.65323 7.3949 9.9547 9.0125 10.7001C9.5 9.77009 9.5075 9.76259 9.6125 9.66509C9.70208 9.57755 9.81216 9.51385 9.93269 9.47979C10.0532 9.44573 10.1804 9.44239 10.3025 9.47009L14.8025 10.4976C14.9265 10.5264 15.0411 10.5862 15.1356 10.6715C15.23 10.7568 15.3012 10.8647 15.3425 10.9851C15.4058 11.1631 15.4535 11.3463 15.485 11.5326C15.5152 11.7211 15.5302 11.9117 15.53 12.1026C15.5162 13.0137 15.1425 13.8823 14.4905 14.5188C13.8385 15.1554 12.9612 15.5081 12.05 15.5001ZM3.95 2.00009C3.43344 2.00206 2.93859 2.20814 2.57332 2.57341C2.20806 2.93868 2.00198 3.43352 2 3.95009C2.00199 6.6149 3.06146 9.17 4.94577 11.0543C6.83008 12.9386 9.38518 13.9981 12.05 14.0001C12.5666 13.9981 13.0614 13.792 13.4267 13.4268C13.7919 13.0615 13.998 12.5666 14 12.0501V11.8026L10.52 11.0001L10.3025 11.4126C9.965 12.0651 9.7175 12.5376 9.0875 12.2826C7.84466 11.8377 6.71652 11.1216 5.78505 10.1862C4.85358 9.25088 4.14217 8.11977 3.7025 6.87509C3.4325 6.29009 3.9425 6.02009 4.5875 5.68259L5 5.48009L4.1975 2.00009H3.95Z" fill="white"/>
</svg>
