<svg width="20" height="20" viewBox="0 0 20 20" fill="none" xmlns="http://www.w3.org/2000/svg">
<path d="M14.4993 18.3334C11.0971 18.329 7.83544 16.9755 5.42968 14.5697C3.02392 12.164 1.67043 8.90231 1.66602 5.50005C1.66602 4.48339 2.06988 3.50837 2.78877 2.78948C3.50766 2.07059 4.48269 1.66672 5.49935 1.66672C5.71463 1.66508 5.92956 1.68462 6.14102 1.72505C6.34544 1.7553 6.5464 1.80555 6.74102 1.87505C6.87789 1.92308 6.99986 2.006 7.09486 2.11561C7.18986 2.22523 7.2546 2.35775 7.28268 2.50005L8.42435 7.50005C8.45512 7.63577 8.45142 7.77704 8.41357 7.91096C8.37572 8.04488 8.30494 8.16719 8.20768 8.26672C8.09935 8.38339 8.09102 8.39172 7.06602 8.92506C7.88684 10.7258 9.32701 12.1719 11.1243 13.0001C11.666 11.9667 11.6743 11.9584 11.791 11.8501C11.8906 11.7528 12.0129 11.682 12.1468 11.6442C12.2807 11.6063 12.422 11.6026 12.5577 11.6334L17.5577 12.7751C17.6954 12.807 17.8228 12.8735 17.9278 12.9683C18.0327 13.063 18.1118 13.1829 18.1577 13.3167C18.228 13.5145 18.281 13.7181 18.316 13.9251C18.3496 14.1345 18.3663 14.3463 18.366 14.5584C18.3507 15.5707 17.9354 16.5358 17.211 17.2431C16.4866 17.9504 15.5117 18.3423 14.4993 18.3334ZM5.49935 3.33339C4.92539 3.33558 4.37556 3.56456 3.96971 3.97041C3.56386 4.37627 3.33488 4.92609 3.33268 5.50005C3.33489 8.46096 4.51208 11.3 6.60576 13.3936C8.69944 15.4873 11.5384 16.6645 14.4993 16.6667C15.0733 16.6645 15.6231 16.4355 16.029 16.0297C16.4348 15.6238 16.6638 15.074 16.666 14.5001V14.2251L12.7993 13.3334L12.5577 13.7917C12.1827 14.5167 11.9077 15.0417 11.2077 14.7584C9.82675 14.2641 8.57326 13.4684 7.53829 12.4291C6.50333 11.3898 5.71287 10.133 5.22435 8.75005C4.92435 8.10006 5.49102 7.80006 6.20768 7.42506L6.66602 7.20006L5.77435 3.33339H5.49935Z" fill="#00B2E3"/>
</svg>
