<svg width="16" height="16" viewBox="0 0 16 16" fill="none" xmlns="http://www.w3.org/2000/svg">
<path d="M12.05 15.5C8.98797 15.496 6.05249 14.2778 3.8873 12.1127C1.72211 9.94748 0.503969 7.012 0.5 3.94996C0.5 3.03497 0.863481 2.15745 1.51048 1.51045C2.15748 0.863445 3.035 0.499964 3.95 0.499964C4.14376 0.498488 4.33719 0.516072 4.5275 0.552464C4.71148 0.579689 4.89235 0.624906 5.0675 0.687464C5.19069 0.730686 5.30046 0.805314 5.38596 0.903968C5.47146 1.00262 5.52973 1.12189 5.555 1.24996L6.5825 5.74996C6.6102 5.87211 6.60686 5.99925 6.5728 6.11978C6.53874 6.2403 6.47503 6.35038 6.3875 6.43996C6.29 6.54496 6.2825 6.55246 5.36 7.03246C6.09875 8.65311 7.3949 9.95458 9.0125 10.7C9.5 9.76996 9.5075 9.76246 9.6125 9.66496C9.70208 9.57743 9.81216 9.51373 9.93269 9.47967C10.0532 9.4456 10.1804 9.44227 10.3025 9.46996L14.8025 10.4975C14.9265 10.5262 15.0411 10.5861 15.1356 10.6714C15.23 10.7566 15.3012 10.8646 15.3425 10.985C15.4058 11.163 15.4535 11.3462 15.485 11.5325C15.5152 11.721 15.5302 11.9116 15.53 12.1025C15.5162 13.0135 15.1425 13.8822 14.4905 14.5187C13.8385 15.1552 12.9612 15.508 12.05 15.5V15.5ZM3.95 1.99996C3.43344 2.00194 2.93859 2.20802 2.57332 2.57329C2.20806 2.93856 2.00198 3.4334 2 3.94996C2.00199 6.61478 3.06146 9.16988 4.94577 11.0542C6.83008 12.9385 9.38518 13.998 12.05 14C12.5666 13.998 13.0614 13.7919 13.4267 13.4266C13.7919 13.0614 13.998 12.5665 14 12.05V11.8025L10.52 11L10.3025 11.4125C9.965 12.065 9.7175 12.5375 9.0875 12.2825C7.84466 11.8376 6.71652 11.1215 5.78505 10.1861C4.85358 9.25076 4.14217 8.11965 3.7025 6.87496C3.4325 6.28996 3.9425 6.01996 4.5875 5.68246L5 5.47996L4.1975 1.99996H3.95Z" fill="#FFC600"/>
</svg>
