<svg width="20" height="20" viewBox="0 0 20 20" fill="none" xmlns="http://www.w3.org/2000/svg">
<path d="M10.0007 1.66663C8.24403 1.66654 6.55836 2.35976 5.31002 3.59562C4.06168 4.83148 3.35155 6.51009 3.33398 8.26663C3.33398 12.8333 9.20898 17.9166 9.45898 18.1333C9.60993 18.2624 9.80202 18.3333 10.0007 18.3333C10.1993 18.3333 10.3914 18.2624 10.5423 18.1333C10.834 17.9166 16.6673 12.8333 16.6673 8.26663C16.6498 6.51009 15.9396 4.83148 14.6913 3.59562C13.4429 2.35976 11.7573 1.66654 10.0007 1.66663ZM10.0007 16.375C8.60898 15.05 5.00065 11.375 5.00065 8.26663C5.00065 6.94054 5.52744 5.66877 6.46512 4.73109C7.4028 3.79341 8.67457 3.26663 10.0007 3.26663C11.3267 3.26663 12.5985 3.79341 13.5362 4.73109C14.4739 5.66877 15.0007 6.94054 15.0007 8.26663C15.0007 11.35 11.3923 15.05 10.0007 16.375Z" fill="#00B2E3"/>
<path d="M10.0007 5C9.42379 5 8.85988 5.17106 8.38024 5.49155C7.9006 5.81203 7.52676 6.26756 7.306 6.80051C7.08525 7.33346 7.02749 7.9199 7.14003 8.48568C7.25257 9.05146 7.53035 9.57116 7.93826 9.97906C8.34616 10.387 8.86586 10.6648 9.43164 10.7773C9.99742 10.8898 10.5839 10.8321 11.1168 10.6113C11.6498 10.3906 12.1053 10.0167 12.4258 9.53708C12.7463 9.05744 12.9173 8.49353 12.9173 7.91667C12.9173 7.14312 12.61 6.40125 12.063 5.85427C11.5161 5.30729 10.7742 5 10.0007 5ZM10.0007 9.16667C9.75343 9.16667 9.51175 9.09336 9.30619 8.956C9.10063 8.81865 8.94041 8.62343 8.8458 8.39502C8.75119 8.16661 8.72644 7.91528 8.77467 7.6728C8.8229 7.43033 8.94195 7.2076 9.11677 7.03278C9.29158 6.85797 9.51431 6.73892 9.75679 6.69068C9.99927 6.64245 10.2506 6.66721 10.479 6.76182C10.7074 6.85643 10.9026 7.01664 11.04 7.2222C11.1773 7.42777 11.2507 7.66944 11.2507 7.91667C11.2507 8.24819 11.119 8.56613 10.8845 8.80055C10.6501 9.03497 10.3322 9.16667 10.0007 9.16667Z" fill="#00B2E3"/>
</svg>
