<svg width="20" height="20" viewBox="0 0 20 20" fill="none" xmlns="http://www.w3.org/2000/svg">
<path d="M16.1327 5.83333H14.9994V4.16667C15.0175 3.74361 14.8671 3.33062 14.5813 3.01822C14.2954 2.70581 13.8974 2.51946 13.4744 2.5H6.52436C6.10136 2.51946 5.70333 2.70581 5.41748 3.01822C5.13163 3.33062 4.98127 3.74361 4.99936 4.16667V5.83333H3.86603C3.27958 5.83774 2.71878 6.07437 2.30643 6.4914C1.89409 6.90843 1.66381 7.47187 1.66603 8.05833V13.6083C1.66381 14.1948 1.89409 14.7582 2.30643 15.1753C2.71878 15.5923 3.27958 15.8289 3.86603 15.8333H4.5827C4.5827 16.2754 4.75829 16.6993 5.07085 17.0118C5.38341 17.3244 5.80734 17.5 6.24936 17.5H13.7494C14.1914 17.5 14.6153 17.3244 14.9279 17.0118C15.2404 16.6993 15.416 16.2754 15.416 15.8333H16.1327C16.7191 15.8289 17.28 15.5923 17.6923 15.1753C18.1046 14.7582 18.3349 14.1948 18.3327 13.6083V8.05833C18.3349 7.47187 18.1046 6.90843 17.6923 6.4914C17.28 6.07437 16.7191 5.83774 16.1327 5.83333ZM6.66603 4.16667H13.3327V5.83333H6.66603V4.16667ZM6.24936 15.8333V12.5H13.7494V15.8333H6.24936ZM16.666 13.6083C16.6683 13.7528 16.6136 13.8923 16.5138 13.9968C16.414 14.1013 16.2771 14.1623 16.1327 14.1667H15.416V12.5C15.416 12.058 15.2404 11.634 14.9279 11.3215C14.6153 11.0089 14.1914 10.8333 13.7494 10.8333H6.24936C5.80734 10.8333 5.38341 11.0089 5.07085 11.3215C4.75829 11.634 4.5827 12.058 4.5827 12.5V14.1667H3.86603C3.72162 14.1623 3.58472 14.1013 3.48492 13.9968C3.38512 13.8923 3.33044 13.7528 3.3327 13.6083V8.05833C3.33044 7.91387 3.38512 7.77432 3.48492 7.66985C3.58472 7.56537 3.72162 7.50436 3.86603 7.5H16.1327C16.2771 7.50436 16.414 7.56537 16.5138 7.66985C16.6136 7.77432 16.6683 7.91387 16.666 8.05833V13.6083Z" fill="#00B2E3"/>
</svg>
